<?xml version="1.0" encoding="utf-8"?>
<!-- Uploaded to: SVG Repo, www.svgrepo.com, Generator: SVG Repo Mixer Tools -->
<svg width="800px" height="800px" viewBox="0 0 1024 1024" class="icon"  version="1.1" xmlns="http://www.w3.org/2000/svg"><path d="M519.232137 503.49783l267.977124-443.100669s195.514642 98.992076 221.338662 334.724454C594.799146 485.36457 519.232137 503.49783 519.232137 503.49783z" fill="#EBA824" /><path d="M953.372011 405.70523c17.427686-2.398953 36.337077-7.97299 55.175912-10.583615-25.753462-235.66182-221.338662-334.724454-221.338662-334.724454l-30.410253 47.767381c48.825742 37.465996 167.29167 122.911045 196.573003 297.540688z" fill="#6E4921" /><path d="M426.872459 568.340109l209.202784-354.198305c-61.314408-36.26652-132.789086-57.151519-209.202784-57.151519-227.194929 0-411.349824 184.154896-411.349824 411.349824s184.154896 411.349824 411.349824 411.349824 411.349824-184.154896 411.349824-411.349824c0-31.609729-3.668986-62.302212-10.442499-91.865776L426.872459 568.340109z" fill="#EBA824" /><path d="M787.420933 485.717357c6.067939 26.600152 9.384138 54.188107 9.384138 82.622752 0 204.334321-165.598291 369.932612-369.932612 369.932612S56.939847 772.67443 56.939847 568.340109c0-204.334321 165.598291-369.932612 369.932612-369.932612 68.722938 0 133.000758 18.768277 188.106112 51.436367l21.026114-35.631503c-61.314408-36.26652-132.789086-57.151519-209.202783-57.151519-227.194929 0-411.349824 184.154896-411.349825 411.349824s184.154896 411.349824 411.349825 411.349825 411.349824-184.154896 411.349824-411.349825c0-31.609729-3.668986-62.302212-10.4425-91.865775l-40.288293 9.172466z" fill="#6E4921" /><path d="M444.088472 671.283401m-48.825742 0a48.825742 48.825742 0 1 0 97.651485 0 48.825742 48.825742 0 1 0-97.651485 0Z" fill="#4C2510" /><path d="M781.846896 219.574726m-35.913733 0a35.913733 35.913733 0 1 0 71.827465 0 35.913733 35.913733 0 1 0-71.827465 0Z" fill="#4C2510" /><path d="M655.549094 582.87494m-19.826638 0a19.826638 19.826638 0 1 0 39.653276 0 19.826638 19.826638 0 1 0-39.653276 0Z" fill="#4C2510" /><path d="M406.058017 897.278853m-19.050506 0a19.050506 19.050506 0 1 0 38.101012 0 19.050506 19.050506 0 1 0-38.101012 0Z" fill="#4C2510" /><path d="M165.245504 591.624061m-35.913732 0a35.913733 35.913733 0 1 0 71.827465 0 35.913733 35.913733 0 1 0-71.827465 0Z" fill="#623520" /><path d="M358.502308 515.704265m-23.848411 0a23.848412 23.848412 0 1 0 47.696823 0 23.848412 23.848412 0 1 0-47.696823 0Z" fill="#FFFCF4" /><path d="M492.7731 312.781093m-13.758699 0a13.758699 13.758699 0 1 0 27.517398 0 13.758699 13.758699 0 1 0-27.517398 0Z" fill="#FFFCF4" /><path d="M868.914766 373.460484m-13.758699 0a13.758699 13.758699 0 1 0 27.517398 0 13.758699 13.758699 0 1 0-27.517398 0Z" fill="#FFFCF4" /><path d="M284.417005 851.416523m-44.592296 0a44.592297 44.592297 0 1 0 89.184593 0 44.592297 44.592297 0 1 0-89.184593 0Z" fill="#FDFDEC" /><path d="M211.672294 534.543099l53.341418-6.702956s-29.493006-92.641907-22.79005-108.164542c4.162888-3.598429 18.13326-6.209054 16.580996 17.568801-1.058361 7.620203 41.20554 14.464273 27.446841-39.371047-5.715152-17.074898-39.018259-42.122786-85.092262-27.587956-21.237787 8.255219-58.844898 30.551368-40.217736 76.272583 5.362365 8.608007 17.074898 13.617584 20.179425-1.90505 3.104527-18.486047 13.829257-31.256942 17.921588-13.617584S211.672294 534.543099 211.672294 534.543099zM532.779164 775.073382l31.115827 38.242128s57.786536-67.876249 73.097498-70.204644c4.797905 1.481706 13.617584 11.077517-5.644594 21.449459-6.420726 2.892855 8.749121 39.088817 43.886722 2.257838 10.513057-12.700338 13.829257-50.730793-19.756081-79.588782-16.722111-12.488665-52.283057-30.974712-78.81265 5.715151-4.092331 8.325777-2.328395 19.897196 11.289189 14.817061 15.875422-6.561841 30.974712-4.374561 19.332736 7.337973-11.783091 11.712534-74.508647 59.973817-74.508647 59.973816zM643.977675 375.153862L635.722456 403.517949s53.200303 5.362365 59.550472 12.135879c0.917247 2.892855-0.846689 10.513057-12.488666 4.515675-3.598429-2.18728-16.298767 17.639358 13.829257 22.437263 9.87804 0.846689 29.775236-10.4425 32.526976-36.830979 0.493902-12.488665-2.540068-36.337077-29.704679-36.972094-5.50348 0.846689-10.583615 5.644595-3.457314 10.583615 8.608007 5.574037 12.700338 13.758699 2.963412 11.994763s-54.964239-16.228209-54.964239-16.228209z" fill="#E8BC38" /><path d="M327.315924 384.114656s27.940743-105.342245 110.069592-102.096603c-1.552263 35.067043-10.301385 102.096603-110.069592 102.096603zM254.35954 627.537794s61.878867 3.810101 69.287397 49.954661c-19.756081 3.03397-58.139323 5.644595-69.287397-49.954661zM781.846896 295.776752s37.113209 2.257838 41.558327 29.986908c-11.853648 1.763936-34.855371 3.386757-41.558327-29.986908z" fill="#3D7C38" /></svg>